<svg xmlns="http://www.w3.org/2000/svg" width="24" height="24" viewBox="0 0 24 24"><defs><style>.a{fill:none;}.b{fill:#fff;}</style></defs><path class="a" d="M0,0H24V24H0Z"/><path class="b" d="M18.778,3.222A11,11,0,0,0,3.222,18.778,11,11,0,0,0,18.778,3.222ZM11,1.719a9.294,9.294,0,0,1,9.241,8.422H15.21a4.3,4.3,0,0,0-8.421,0H1.759A9.294,9.294,0,0,1,11,1.719ZM13.578,11A2.578,2.578,0,1,1,11,8.422,2.581,2.581,0,0,1,13.578,11ZM11,20.281a9.294,9.294,0,0,1-9.241-8.422H6.789a4.3,4.3,0,0,0,8.421,0h5.031A9.294,9.294,0,0,1,11,20.281Z" transform="translate(1 1)"/><circle class="b" cx="1" cy="1" r="1" transform="translate(11 11)"/></svg>