<svg xmlns="http://www.w3.org/2000/svg" width="161" height="80.741" viewBox="0 0 161 80.741"><defs><style>.a{fill:#8d9aa3;}.b{fill:#5e707a;}.c{fill:#33363a;}</style></defs><g transform="translate(0 -31.801)"><g transform="translate(0 31.801)"><g transform="translate(1.893 2.255)"><path class="a" d="M51.741,50.911c.688,14.994-16.513,1.167-30.668,1.167S1.5,50.819,1.5,44.69s11.473-11.1,25.63-11.1C47.285,33.588,51.461,44.787,51.741,50.911Z" transform="translate(-1.5 -33.588)"/></g><g transform="translate(1.893 2.516)"><path class="b" d="M39.916,56.474c.959-1.073,1.442-2.852,1.316-5.615-.256-5.576-3.747-15.359-19.585-17.063C10.129,34.88,1.5,39.32,1.5,44.636c0,6.129,5.417,7.388,19.575,7.388C27.366,52.024,34.258,54.755,39.916,56.474Z" transform="translate(-1.5 -33.795)"/></g><g transform="translate(0 0.362)"><path class="c" d="M47.153,60.173c-3.034,0-6.764-1.211-10.855-2.54-4.717-1.532-10.064-3.268-14.832-3.268C8.9,54.364,0,53.7,0,45.083c0-7.409,11.833-12.995,27.523-12.995,18.894,0,26.078,9.882,26.5,19.13h0c.172,3.725-.666,6.239-2.563,7.684A6.882,6.882,0,0,1,47.153,60.173Zm-19.63-24.3c-13.988,0-23.737,4.853-23.737,9.209,0,3.8,2.553,5.5,17.682,5.5,5.368,0,11.016,1.835,16,3.454,4.873,1.582,9.91,3.22,11.7,1.859,1.025-.781,1.151-2.878,1.078-4.5h0C50.077,47.751,47.944,35.874,27.523,35.874Z" transform="translate(0 -32.088)"/></g><g transform="translate(48.819)"><path class="c" d="M42.022,35.587H40.58a1.893,1.893,0,0,1,0-3.786h1.442a1.893,1.893,0,1,1,0,3.786Z" transform="translate(-38.687 -31.801)"/></g><g transform="translate(52.677 4.832)"><path class="c" d="M45.082,39.416H43.637a1.893,1.893,0,0,1,0-3.786h1.445a1.893,1.893,0,1,1,0,3.786Z" transform="translate(-41.744 -35.63)"/></g><g transform="translate(55.094 9.905)"><path class="c" d="M47,43.436H45.553a1.893,1.893,0,0,1,0-3.786H47a1.893,1.893,0,1,1,0,3.786Z" transform="translate(-43.66 -39.65)"/></g><g transform="translate(56.535 15.703)"><path class="c" d="M48.14,48.031H46.695a1.893,1.893,0,0,1,0-3.786H48.14a1.893,1.893,0,0,1,0,3.786Z" transform="translate(-44.802 -44.245)"/></g><g transform="translate(56.535 21.84)"><path class="c" d="M48.14,52.894H46.695a1.893,1.893,0,0,1,0-3.786H48.14a1.893,1.893,0,0,1,0,3.786Z" transform="translate(-44.802 -49.108)"/></g></g><g transform="translate(17.319 84.095)"><g transform="translate(34.191 1.887)"><path class="a" d="M91.062,81.719c.688-15-16.513-1.169-30.67-1.169S40.82,81.81,40.82,87.939s11.473,11.1,25.628,11.1C86.6,99.042,90.781,87.843,91.062,81.719Z" transform="translate(-40.82 -74.737)"/></g><g transform="translate(34.191 3.252)"><path class="b" d="M79.237,75.819c.957,1.073,1.442,2.852,1.316,5.617C80.3,87.011,76.8,96.793,60.969,98.5,49.449,97.413,40.82,92.973,40.82,87.657c0-6.129,5.417-7.388,19.572-7.388C66.686,80.268,73.578,77.538,79.237,75.819Z" transform="translate(-40.82 -75.819)"/></g><g transform="translate(81.117 24.661)"><path class="c" d="M81.342,96.571H79.9a1.893,1.893,0,0,1,0-3.786h1.442a1.893,1.893,0,0,1,0,3.786Z" transform="translate(-78.007 -92.785)"/></g><g transform="translate(84.975 19.83)"><path class="c" d="M84.4,92.742H82.957a1.893,1.893,0,1,1,0-3.786H84.4a1.893,1.893,0,1,1,0,3.786Z" transform="translate(-81.064 -88.956)"/></g><g transform="translate(87.392 14.757)"><path class="c" d="M86.315,88.722H84.873a1.893,1.893,0,0,1,0-3.786h1.442a1.893,1.893,0,1,1,0,3.786Z" transform="translate(-82.98 -84.936)"/></g><g transform="translate(88.835 8.958)"><path class="c" d="M87.458,84.127H86.016a1.893,1.893,0,0,1,0-3.786h1.442a1.893,1.893,0,0,1,0,3.786Z" transform="translate(-84.123 -80.341)"/></g><g transform="translate(88.835 2.822)"><path class="c" d="M87.458,79.264H86.016a1.893,1.893,0,0,1,0-3.786h1.442a1.893,1.893,0,0,1,0,3.786Z" transform="translate(-84.123 -75.478)"/></g><path class="c" d="M93.058,74.514c-3.362-2.565-8.832-.789-15.164,1.268-4.717,1.532-10.064,3.268-14.834,3.268-12.4,0-21.2.664-21.442,8.948H32.524a1.893,1.893,0,0,0,0,3.786h9.814a1.811,1.811,0,0,0,.185-.019c3.036,5.631,13.445,9.561,26.593,9.561,24.392,0,26.358-15.934,26.5-19.129C95.793,78.473,94.954,75.959,93.058,74.514ZM91.84,82.025c-.168,3.641-2.3,15.516-22.724,15.516-13.987,0-23.735-4.853-23.735-9.209,0-3.8,2.552-5.5,17.679-5.5,5.369,0,11.018-1.835,16-3.454,3.6-1.167,7.284-2.366,9.688-2.366a3.32,3.32,0,0,1,2.013.507C91.787,78.306,91.914,80.4,91.84,82.025Z" transform="translate(-9.297 -73.242)"/><path class="c" d="M26,84.936a1.893,1.893,0,1,0,0,3.786h.114a1.845,1.845,0,0,0,1.836-1.893A1.941,1.941,0,0,0,26,84.936Z" transform="translate(-11.006 -70.179)"/><path class="c" d="M20.809,84.936a1.893,1.893,0,1,0,0,3.786h.114a1.845,1.845,0,0,0,1.836-1.893A1.942,1.942,0,0,0,20.809,84.936Z" transform="translate(-12.366 -70.179)"/><path class="c" d="M15.618,84.936a1.893,1.893,0,0,0,0,3.786h.114a1.845,1.845,0,0,0,1.836-1.893A1.942,1.942,0,0,0,15.618,84.936Z" transform="translate(-13.725 -70.179)"/></g><g transform="translate(66.272 31.801)"><g transform="translate(34.854 2.255)"><path class="a" d="M130.383,50.911c.688,14.994-16.516,1.167-30.67,1.167S80.138,50.819,80.138,44.69s11.476-11.1,25.63-11.1C125.925,33.588,130.1,44.787,130.383,50.911Z" transform="translate(-80.138 -33.588)"/></g><g transform="translate(34.854 2.516)"><path class="b" d="M118.555,56.474c.959-1.073,1.445-2.852,1.316-5.615-.256-5.576-3.747-15.359-19.585-17.063-11.517,1.086-20.149,5.526-20.149,10.842,0,6.129,5.42,7.388,19.575,7.388C106.006,52.024,112.9,54.755,118.555,56.474Z" transform="translate(-80.138 -33.795)"/></g><g transform="translate(81.781)"><path class="c" d="M120.664,35.587h-1.445a1.893,1.893,0,0,1,0-3.786h1.445a1.893,1.893,0,0,1,0,3.786Z" transform="translate(-117.326 -31.801)"/></g><g transform="translate(85.64 4.832)"><path class="c" d="M123.719,39.416h-1.442a1.893,1.893,0,0,1,0-3.786h1.442a1.893,1.893,0,1,1,0,3.786Z" transform="translate(-120.384 -35.63)"/></g><g transform="translate(88.055 9.905)"><path class="c" d="M125.636,43.436h-1.445a1.893,1.893,0,0,1,0-3.786h1.445a1.893,1.893,0,0,1,0,3.786Z" transform="translate(-122.298 -39.65)"/></g><g transform="translate(89.5 15.703)"><path class="c" d="M126.778,48.031h-1.442a1.893,1.893,0,0,1,0-3.786h1.442a1.893,1.893,0,0,1,0,3.786Z" transform="translate(-123.443 -44.245)"/></g><g transform="translate(89.5 21.84)"><path class="c" d="M126.778,52.894h-1.442a1.893,1.893,0,0,1,0-3.786h1.442a1.893,1.893,0,0,1,0,3.786Z" transform="translate(-123.443 -49.108)"/></g><g transform="translate(0 0.362)"><path class="c" d="M135.08,51.218c-.424-9.248-7.609-19.13-26.5-19.13-15.086,0-26.573,5.17-27.439,12.152H71.315a1.893,1.893,0,0,0,0,3.786h9.814a1.836,1.836,0,0,0,.346-.035c1.9,5.864,10.07,6.374,21.045,6.374,4.769,0,10.115,1.736,14.832,3.268,4.091,1.329,7.821,2.54,10.857,2.54a6.881,6.881,0,0,0,4.308-1.271C134.413,57.456,135.251,54.943,135.08,51.218Zm-4.857,4.673c-1.789,1.36-6.828-.276-11.7-1.859-4.983-1.619-10.634-3.454-16-3.454-15.128,0-17.682-1.7-17.682-5.5,0-4.356,9.749-9.209,23.737-9.209,20.425,0,22.556,11.878,22.724,15.518C131.373,53.013,131.246,55.11,130.223,55.891Z" transform="translate(-48.091 -32.088)"/><path class="c" d="M64.791,41.718a1.893,1.893,0,1,0,0,3.786H64.9a1.845,1.845,0,0,0,1.836-1.893A1.941,1.941,0,0,0,64.791,41.718Z" transform="translate(-49.8 -29.566)"/><path class="c" d="M59.6,41.718a1.893,1.893,0,1,0,0,3.786h.114a1.845,1.845,0,0,0,1.836-1.893A1.942,1.942,0,0,0,59.6,41.718Z" transform="translate(-51.159 -29.566)"/><path class="c" d="M54.411,41.718a1.893,1.893,0,1,0,0,3.786h.114a1.845,1.845,0,0,0,1.836-1.893A1.942,1.942,0,0,0,54.411,41.718Z" transform="translate(-52.518 -29.566)"/></g></g></g></svg>